<svg width="818" height="732" viewBox="0 0 818 732" fill="none" xmlns="http://www.w3.org/2000/svg">
<g opacity="0.4">
<g opacity="0.16">
<path d="M516.276 7.13859C532.484 11.9144 547.705 19.4163 562.574 28.1129C595.093 47.1472 627.635 66.1816 660.177 85.2159L660.361 85.3237L660.51 85.4106C693.069 104.455 725.627 123.499 758.163 142.543C761.937 144.723 765.619 146.903 768.84 149.809C797.465 175.329 814.677 206.57 817.53 244.986V268.508C817.438 270.143 817.346 271.868 817.346 273.503C817.18 288.027 817.019 302.55 816.857 317.074L816.856 317.119C816.208 375.235 815.56 433.35 814.677 491.466C814.401 512.717 808.786 532.606 795.624 549.953C789.734 557.763 783.567 565.21 776.848 572.294C755.586 594.817 729.446 610.528 702.478 625.332C647.529 655.574 592.58 685.907 537.907 716.694C521.892 725.685 505.048 730.317 487.008 731.679H469.889C449.547 730.135 430.311 724.777 412.546 714.515C389.023 700.867 365.254 687.648 341.489 674.431C298.675 650.621 255.878 626.819 214.565 600.538C181.982 579.832 156.67 553.767 144.705 516.532C140.006 501.68 139.718 486.488 139.427 471.192L139.427 471.18C139.382 468.802 139.336 466.421 139.275 464.039C137.573 399.801 138.6 335.628 139.627 271.465C139.823 259.248 140.018 247.031 140.195 234.814C140.747 199.85 158.971 172.332 185.664 151.534C210.775 131.907 238.751 116.387 266.693 100.887L266.693 100.886C275.212 96.161 283.726 91.4373 292.156 86.5996C293.26 85.9639 294.388 85.3282 295.515 84.6925L295.52 84.6899C296.646 84.0551 297.772 83.4202 298.875 82.7853L302.551 80.5919L302.925 80.3787L302.649 80.5339L306.79 78.0628C332.062 63.7395 357.521 49.7495 382.975 35.7618L382.979 35.7599L382.996 35.7505C397.4 27.8354 411.802 19.921 426.169 11.9473C431.507 9.04113 437.03 6.8615 442.92 5.49923L450.386 3.8847C451.795 3.47875 454.937 2.65402 459.454 1.9236L463.077 1.13997H465.37C477.54 -0.129744 495.678 0.0250229 516.004 7.04431L516.113 7.08214L516.276 7.13859Z" fill="#F1CD6D"/>
<path d="M516.276 7.13859C532.484 11.9144 547.705 19.4163 562.574 28.1129C595.093 47.1472 627.635 66.1816 660.177 85.2159L660.361 85.3237L660.51 85.4106C693.069 104.455 725.627 123.499 758.163 142.543C761.937 144.723 765.619 146.903 768.84 149.809C797.465 175.329 814.677 206.57 817.53 244.986V268.508C817.438 270.143 817.346 271.868 817.346 273.503C817.18 288.027 817.019 302.55 816.857 317.074L816.856 317.119C816.208 375.235 815.56 433.35 814.677 491.466C814.401 512.717 808.786 532.606 795.624 549.953C789.734 557.763 783.567 565.21 776.848 572.294C755.586 594.817 729.446 610.528 702.478 625.332C647.529 655.574 592.58 685.907 537.907 716.694C521.892 725.685 505.048 730.317 487.008 731.679H469.889C449.547 730.135 430.311 724.777 412.546 714.515C389.023 700.867 365.254 687.648 341.489 674.431C298.675 650.621 255.878 626.819 214.565 600.538C181.982 579.832 156.67 553.767 144.705 516.532C140.006 501.68 139.718 486.488 139.427 471.192L139.427 471.18C139.382 468.802 139.336 466.421 139.275 464.039C137.573 399.801 138.6 335.628 139.627 271.465C139.823 259.248 140.018 247.031 140.195 234.814C140.747 199.85 158.971 172.332 185.664 151.534C210.775 131.907 238.751 116.387 266.693 100.887L266.693 100.886C275.212 96.161 283.726 91.4373 292.156 86.5996C293.26 85.9639 294.388 85.3282 295.515 84.6925L295.52 84.6899C296.646 84.0551 297.772 83.4202 298.875 82.7853L302.551 80.5919L302.925 80.3787L302.649 80.5339L306.79 78.0628C332.062 63.7395 357.521 49.7495 382.975 35.7618L382.979 35.7599L382.996 35.7505C397.4 27.8354 411.802 19.921 426.169 11.9473C431.507 9.04113 437.03 6.8615 442.92 5.49923L450.386 3.8847C451.795 3.47875 454.937 2.65402 459.454 1.9236L463.077 1.13997H465.37C477.54 -0.129744 495.678 0.0250229 516.004 7.04431L516.113 7.08214L516.276 7.13859Z" stroke="#F9EBC4"/>
</g>
<g opacity="0.24">
<path d="M509.473 70.825C522.806 74.7535 535.327 80.9244 547.558 88.0781C574.349 103.759 601.158 119.441 627.968 135.122L627.996 135.139L628.18 135.246C654.941 150.9 681.703 166.553 708.445 182.206C711.55 183.999 714.578 185.792 717.228 188.183C740.774 209.175 754.933 234.873 757.28 266.474V285.822C757.204 287.167 757.128 288.586 757.128 289.931C756.992 301.878 756.859 313.825 756.726 325.772L756.725 325.817C756.192 373.619 755.659 421.421 754.933 469.223C754.705 486.704 750.087 503.065 739.26 517.333C734.415 523.758 729.342 529.884 723.815 535.711C706.326 554.238 684.823 567.162 662.64 579.339C617.44 604.215 572.24 629.167 527.267 654.492C514.093 661.888 500.238 665.698 485.399 666.818H471.316C454.584 665.548 438.76 661.141 424.148 652.699C404.798 641.473 385.246 630.599 365.697 619.727C330.48 600.141 295.275 580.562 261.292 558.944C234.49 541.911 213.669 520.471 203.827 489.842C199.962 477.625 199.724 465.129 199.485 452.546L199.485 452.537C199.448 450.58 199.411 448.622 199.36 446.662C197.96 393.822 198.805 341.034 199.65 288.254C199.811 278.205 199.971 268.156 200.117 258.107C200.571 229.345 215.562 206.71 237.518 189.602C258.174 173.457 281.187 160.691 304.171 147.941L304.172 147.94C311.179 144.053 318.183 140.167 325.117 136.188C326.025 135.665 326.953 135.142 327.88 134.619L327.887 134.616C328.812 134.094 329.737 133.572 330.644 133.05L333.668 131.246L333.975 131.071L333.748 131.199L337.155 129.166C357.943 117.384 378.884 105.876 399.823 94.3701L399.826 94.3683L399.839 94.3614C411.687 87.8503 423.535 81.3398 435.353 74.7806C439.745 72.39 444.287 70.5971 449.133 69.4765L455.274 68.1484C456.433 67.8145 459.017 67.1361 462.733 66.5353L465.714 65.8907H467.599C477.611 64.8462 492.53 64.9735 509.25 70.7475L509.473 70.825Z" fill="#F1CD6D"/>
<path d="M509.473 70.825C522.806 74.7535 535.327 80.9244 547.558 88.0781C574.349 103.759 601.158 119.441 627.968 135.122L627.996 135.139L628.18 135.246C654.941 150.9 681.703 166.553 708.445 182.206C711.55 183.999 714.578 185.792 717.228 188.183C740.774 209.175 754.933 234.873 757.28 266.474V285.822C757.204 287.167 757.128 288.586 757.128 289.931C756.992 301.878 756.859 313.825 756.726 325.772L756.725 325.817C756.192 373.619 755.659 421.421 754.933 469.223C754.705 486.704 750.087 503.065 739.26 517.333C734.415 523.758 729.342 529.884 723.815 535.711C706.326 554.238 684.823 567.162 662.64 579.339C617.44 604.215 572.24 629.167 527.267 654.492C514.093 661.888 500.238 665.698 485.399 666.818H471.316C454.584 665.548 438.76 661.141 424.148 652.699C404.798 641.473 385.246 630.599 365.697 619.727C330.48 600.141 295.275 580.562 261.292 558.944C234.49 541.911 213.669 520.471 203.827 489.842C199.962 477.625 199.724 465.129 199.485 452.546L199.485 452.537C199.448 450.58 199.411 448.622 199.36 446.662C197.96 393.822 198.805 341.034 199.65 288.254C199.811 278.205 199.971 268.156 200.117 258.107C200.571 229.345 215.562 206.71 237.518 189.602C258.174 173.457 281.187 160.691 304.171 147.941L304.172 147.94C311.179 144.053 318.183 140.167 325.117 136.188C326.025 135.665 326.953 135.142 327.88 134.619L327.887 134.616C328.812 134.094 329.737 133.572 330.644 133.05L333.668 131.246L333.975 131.071L333.748 131.199L337.155 129.166C357.943 117.384 378.884 105.876 399.823 94.3701L399.826 94.3683L399.839 94.3614C411.687 87.8503 423.535 81.3398 435.353 74.7806C439.745 72.39 444.287 70.5971 449.133 69.4765L455.274 68.1484C456.433 67.8145 459.017 67.1361 462.733 66.5353L465.714 65.8907H467.599C477.611 64.8462 492.53 64.9735 509.25 70.7475L509.473 70.825Z" stroke="#F9EBC4"/>
</g>
<g opacity="0.24">
<path d="M502.675 134.513C513.132 137.595 522.952 142.434 532.545 148.045C553.546 160.338 574.562 172.63 595.578 184.923L595.634 184.955L595.661 184.972C616.69 197.271 637.718 209.571 658.732 221.871C661.166 223.278 663.542 224.684 665.62 226.559C684.088 243.023 695.192 263.179 697.033 287.963V303.139C696.974 304.193 696.914 305.307 696.914 306.361C696.809 315.613 696.706 324.864 696.602 334.116L696.598 334.472C696.18 371.975 695.762 409.479 695.192 446.983C695.014 460.693 691.392 473.525 682.9 484.716C679.1 489.755 675.121 494.559 670.786 499.13C657.069 513.66 640.205 523.797 622.806 533.347C587.355 552.859 551.904 572.428 516.631 592.291C506.299 598.092 495.432 601.08 483.793 601.959H472.748C459.625 600.963 447.214 597.506 435.753 590.885C420.578 582.081 405.244 573.553 389.913 565.026L389.91 565.025C362.288 549.663 334.677 534.307 308.023 517.352C287.002 503.993 270.672 487.177 262.952 463.154C259.921 453.572 259.735 443.771 259.547 433.902L259.547 433.895C259.518 432.361 259.489 430.825 259.449 429.288C258.351 387.844 259.014 346.442 259.676 305.046C259.802 297.164 259.928 289.283 260.042 281.401C260.399 258.843 272.156 241.09 289.377 227.672C305.578 215.009 323.627 204.996 341.654 194.996L341.654 194.996L341.655 194.996C347.15 191.947 352.644 188.9 358.082 185.779C358.794 185.368 359.522 184.958 360.249 184.548L360.252 184.546C360.979 184.137 361.705 183.727 362.417 183.318L364.788 181.903L365.029 181.765L364.851 181.865L367.523 180.271C383.827 171.03 400.252 162.005 416.674 152.981L416.677 152.979L416.688 152.973C425.981 147.866 435.273 142.76 444.542 137.616C447.986 135.741 451.549 134.335 455.349 133.456L460.166 132.414C461.075 132.152 463.102 131.62 466.016 131.149L468.354 130.643H469.833C477.685 129.824 489.386 129.924 502.5 134.453L502.675 134.513Z" fill="#F1CD6D"/>
<path d="M502.675 134.513C513.132 137.595 522.952 142.434 532.545 148.045C553.546 160.338 574.562 172.63 595.578 184.923L595.634 184.955L595.661 184.972C616.69 197.271 637.718 209.571 658.732 221.871C661.166 223.278 663.542 224.684 665.62 226.559C684.088 243.023 695.192 263.179 697.033 287.963V303.139C696.974 304.193 696.914 305.307 696.914 306.361C696.809 315.613 696.706 324.864 696.602 334.116L696.598 334.472C696.18 371.975 695.762 409.479 695.192 446.983C695.014 460.693 691.392 473.525 682.9 484.716C679.1 489.755 675.121 494.559 670.786 499.13C657.069 513.66 640.205 523.797 622.806 533.347C587.355 552.859 551.904 572.428 516.631 592.291C506.299 598.092 495.432 601.08 483.793 601.959H472.748C459.625 600.963 447.214 597.506 435.753 590.885C420.578 582.081 405.244 573.553 389.913 565.026L389.91 565.025C362.288 549.663 334.677 534.307 308.023 517.352C287.002 503.993 270.672 487.177 262.952 463.154C259.921 453.572 259.735 443.771 259.547 433.902L259.547 433.895C259.518 432.361 259.489 430.825 259.449 429.288C258.351 387.844 259.014 346.442 259.676 305.046C259.802 297.164 259.928 289.283 260.042 281.401C260.399 258.843 272.156 241.09 289.377 227.672C305.578 215.009 323.627 204.996 341.654 194.996L341.654 194.996L341.655 194.996C347.15 191.947 352.644 188.9 358.082 185.779C358.794 185.368 359.522 184.958 360.249 184.548L360.252 184.546C360.979 184.137 361.705 183.727 362.417 183.318L364.788 181.903L365.029 181.765L364.851 181.865L367.523 180.271C383.827 171.03 400.252 162.005 416.674 152.981L416.677 152.979L416.688 152.973C425.981 147.866 435.273 142.76 444.542 137.616C447.986 135.741 451.549 134.335 455.349 133.456L460.166 132.414C461.075 132.152 463.102 131.62 466.016 131.149L468.354 130.643H469.833C477.685 129.824 489.386 129.924 502.5 134.453L502.675 134.513Z" stroke="#F9EBC4"/>
</g>
<g opacity="0.32">
<path d="M496.484 192.41C504.327 194.721 511.692 198.351 518.887 202.559C534.637 211.778 550.399 220.998 566.161 230.217L566.203 230.241L566.24 230.263C582.006 239.485 597.772 248.707 613.526 257.928C615.352 258.983 617.134 260.038 618.693 261.444C632.543 273.792 640.872 288.909 642.252 307.497V318.879C642.208 319.67 642.163 320.505 642.163 321.296C642.084 328.207 642.007 335.118 641.93 342.029L641.926 342.379C641.613 370.506 641.299 398.634 640.872 426.762C640.738 437.045 638.021 446.669 631.653 455.062C628.802 458.841 625.818 462.444 622.567 465.872C612.279 476.77 599.631 484.373 586.582 491.536C559.994 506.169 533.405 520.846 506.951 535.743C499.202 540.094 491.051 542.335 482.322 542.994H474.039C464.196 542.247 454.888 539.654 446.292 534.689C434.912 528.086 423.412 521.691 411.915 515.296L411.91 515.293C391.194 503.772 370.485 492.255 350.495 479.539C334.729 469.52 322.481 456.908 316.692 438.89C314.418 431.704 314.278 424.353 314.138 416.952L314.138 416.946C314.116 415.796 314.094 414.644 314.064 413.491C313.241 382.408 313.738 351.356 314.235 320.31C314.329 314.398 314.424 308.487 314.509 302.576C314.777 285.657 323.595 272.342 336.51 262.279C348.661 252.782 362.198 245.272 375.718 237.772L375.718 237.772C379.84 235.485 383.96 233.2 388.039 230.859C388.573 230.551 389.119 230.244 389.664 229.936L389.668 229.934C390.212 229.627 390.757 229.32 391.29 229.013L393.069 227.952L393.25 227.849L393.116 227.924L395.12 226.728C407.348 219.798 419.666 213.028 431.983 206.26L431.985 206.259L431.991 206.256C438.962 202.425 445.931 198.595 452.884 194.737C455.467 193.331 458.139 192.276 460.989 191.617L464.602 190.835C465.284 190.639 466.804 190.24 468.99 189.887L470.743 189.507H471.852C477.741 188.893 486.517 188.968 496.352 192.364L496.484 192.41Z" fill="#F1CD6D"/>
<path d="M496.484 192.41C504.327 194.721 511.692 198.351 518.887 202.559C534.637 211.778 550.399 220.998 566.161 230.217L566.203 230.241L566.24 230.263C582.006 239.485 597.772 248.707 613.526 257.928C615.352 258.983 617.134 260.038 618.693 261.444C632.543 273.792 640.872 288.909 642.252 307.497V318.879C642.208 319.67 642.163 320.505 642.163 321.296C642.084 328.207 642.007 335.118 641.93 342.029L641.926 342.379C641.613 370.506 641.299 398.634 640.872 426.762C640.738 437.045 638.021 446.669 631.653 455.062C628.802 458.841 625.818 462.444 622.567 465.872C612.279 476.77 599.631 484.373 586.582 491.536C559.994 506.169 533.405 520.846 506.951 535.743C499.202 540.094 491.051 542.335 482.322 542.994H474.039C464.196 542.247 454.888 539.654 446.292 534.689C434.912 528.086 423.412 521.691 411.915 515.296L411.91 515.293C391.194 503.772 370.485 492.255 350.495 479.539C334.729 469.52 322.481 456.908 316.692 438.89C314.418 431.704 314.278 424.353 314.138 416.952L314.138 416.946C314.116 415.796 314.094 414.644 314.064 413.491C313.241 382.408 313.738 351.356 314.235 320.31C314.329 314.398 314.424 308.487 314.509 302.576C314.777 285.657 323.595 272.342 336.51 262.279C348.661 252.782 362.198 245.272 375.718 237.772L375.718 237.772C379.84 235.485 383.96 233.2 388.039 230.859C388.573 230.551 389.119 230.244 389.664 229.936L389.668 229.934C390.212 229.627 390.757 229.32 391.29 229.013L393.069 227.952L393.25 227.849L393.116 227.924L395.12 226.728C407.348 219.798 419.666 213.028 431.983 206.26L431.985 206.259L431.991 206.256C438.962 202.425 445.931 198.595 452.884 194.737C455.467 193.331 458.139 192.276 460.989 191.617L464.602 190.835C465.284 190.639 466.804 190.24 468.99 189.887L470.743 189.507H471.852C477.741 188.893 486.517 188.968 496.352 192.364L496.484 192.41Z" stroke="#F9EBC4"/>
</g>
<path opacity="0.48" fill-rule="evenodd" clip-rule="evenodd" d="M490.503 237.932C496.24 239.632 501.637 242.306 506.912 245.407C518.471 252.205 530.038 259.004 541.604 265.803C553.173 272.603 564.742 279.403 576.302 286.202C577.641 286.98 578.947 287.757 580.093 288.793C590.272 297.896 596.436 309.045 597.548 322.759L597.612 331.157C597.584 331.741 597.556 332.357 597.561 332.941C597.542 338.126 597.524 343.312 597.506 348.497C597.435 369.251 597.364 390.006 597.21 410.76C597.17 418.348 595.241 425.451 590.639 431.648C588.58 434.438 586.422 437.099 584.068 439.63C576.62 447.677 567.43 453.295 557.946 458.588C538.62 469.402 519.295 480.248 500.069 491.257C494.437 494.471 488.501 496.13 482.133 496.622L476.086 496.627C468.898 496.082 462.089 494.175 455.787 490.516C447.442 485.651 439.011 480.938 430.582 476.227C415.396 467.739 400.215 459.254 385.553 449.883C373.989 442.5 364.978 433.202 360.651 419.911C358.951 414.61 358.808 409.187 358.664 403.725C358.641 402.875 358.619 402.024 358.591 401.172C357.815 378.238 358.004 355.326 358.192 332.417C358.228 328.055 358.264 323.694 358.293 319.332C358.393 306.848 364.755 297.018 374.126 289.585C382.942 282.57 392.781 277.02 402.608 271.478C405.603 269.788 408.598 268.099 411.562 266.369C411.95 266.142 412.347 265.915 412.743 265.687C413.14 265.46 413.536 265.233 413.925 265.006L415.217 264.221C415.261 264.196 415.305 264.171 415.348 264.145L415.251 264.201L416.707 263.317C425.594 258.195 434.549 253.193 443.501 248.191C448.569 245.359 453.637 242.528 458.691 239.676C460.569 238.637 462.513 237.857 464.59 237.369L467.222 236.79C467.719 236.645 468.826 236.349 470.42 236.087L471.697 235.806L472.507 235.806C476.802 235.349 483.209 235.399 490.406 237.899C490.439 237.91 490.471 237.921 490.503 237.932Z" fill="#F1CD6D"/>
</g>
<path d="M291.426 318.321C291.192 318.796 290.951 319.269 290.712 319.743C290.063 321.03 289.392 322.312 288.702 323.589C288.478 324.002 288.26 324.42 288.03 324.83C287.121 326.472 286.18 328.106 285.207 329.73C285.096 329.913 284.982 330.095 284.87 330.278C283.847 331.963 282.796 333.639 281.699 335.304L245.305 390.986H277.065L313.459 335.304C314.555 333.642 315.606 331.964 316.628 330.281C316.74 330.097 316.856 329.913 316.967 329.728C317.042 329.609 317.116 329.492 317.184 329.374C318.086 327.868 318.948 326.353 319.79 324.829C320.014 324.418 320.234 324.003 320.458 323.591C321.149 322.313 321.822 321.029 322.474 319.74C322.713 319.268 322.952 318.796 323.185 318.322C324.002 316.661 324.797 314.989 325.545 313.307H293.783C293.037 314.989 292.242 316.658 291.426 318.321Z" fill="#F9EBC4"/>
<path d="M358.885 273.332C358.885 268.914 355.303 265.332 350.885 265.332H335.125C330.707 265.332 327.125 268.914 327.125 273.332V382.263C327.125 386.682 330.707 390.263 335.125 390.263H343.017C347.436 390.263 351.017 393.845 351.017 398.263V414.899C351.017 419.317 347.436 422.899 343.017 422.899H335.125C330.707 422.899 327.125 426.48 327.125 430.899V456.088C327.125 460.506 330.707 464.088 335.125 464.088H350.885C355.303 464.088 358.885 460.506 358.885 456.088V424.899C358.885 423.794 359.78 422.899 360.885 422.899H374.778C379.196 422.899 382.778 419.317 382.778 414.899V398.263C382.778 393.845 379.196 390.263 374.778 390.263H360.885C359.78 390.263 358.885 389.368 358.885 388.263V273.332Z" fill="#F9EBC4"/>
<path d="M335.152 388.265C335.152 389.37 336.048 390.265 337.152 390.265H351.045C355.463 390.265 359.045 393.847 359.045 398.265V414.898C359.045 419.317 355.463 422.898 351.045 422.898H337.152C336.048 422.898 335.152 423.794 335.152 424.898V456.088C335.152 460.506 331.57 464.088 327.152 464.088H302.138C297.72 464.088 294.138 460.506 294.138 456.088V424.9C294.138 423.796 293.243 422.9 292.138 422.9H217.402C212.984 422.9 209.402 419.319 209.402 414.9V396.123C209.402 394.521 209.883 392.957 210.782 391.632L294.073 268.843C295.562 266.648 298.042 265.334 300.694 265.334H327.156C331.574 265.334 335.156 268.916 335.156 273.334L335.152 388.265ZM294.81 332.081C295.22 322.513 295.554 316.536 295.811 314.15C295.851 313.784 295.566 313.458 295.198 313.458C294.962 313.458 294.748 313.596 294.65 313.81C291.262 321.254 287.274 328.41 282.726 335.207L248.384 387.162C247.505 388.492 248.459 390.265 250.053 390.265H292.138C293.243 390.265 294.138 389.37 294.138 388.265V356.552C294.138 350.942 294.362 342.785 294.81 332.083" fill="#F1CD6D"/>
<path d="M649.834 317.701C649.599 318.184 649.357 318.665 649.115 319.15C648.468 320.443 647.802 321.729 647.117 323.009C646.887 323.439 646.663 323.87 646.428 324.299C645.52 325.957 644.58 327.607 643.607 329.247C643.507 329.418 643.4 329.586 643.298 329.756C642.272 331.467 641.212 333.168 640.117 334.859L603.723 391.113H635.482L671.876 334.859C672.977 333.168 674.033 331.465 675.061 329.753C675.162 329.584 675.266 329.417 675.366 329.249C675.429 329.143 675.496 329.038 675.558 328.933C676.467 327.397 677.338 325.851 678.189 324.298C678.422 323.87 678.646 323.44 678.877 323.011C679.563 321.728 680.23 320.44 680.877 319.148C681.117 318.667 681.359 318.187 681.593 317.706C682.414 316.027 683.208 314.337 683.96 312.637H652.2C651.449 314.332 650.652 316.02 649.834 317.701Z" fill="#F9EBC4"/>
<path d="M747.194 398.263C747.194 393.845 743.612 390.263 739.194 390.263H725.291C724.186 390.263 723.291 389.368 723.291 388.263V273.332C723.291 268.914 719.709 265.332 715.291 265.332H699.531C695.113 265.332 691.531 268.914 691.531 273.332V382.263C691.531 386.682 695.113 390.263 699.531 390.263H707.434C711.852 390.263 715.434 393.845 715.434 398.263V414.899C715.434 419.317 711.852 422.899 707.434 422.899H699.531C695.113 422.899 691.531 426.48 691.531 430.899V456.088C691.531 460.506 695.113 464.088 699.531 464.088H715.291C719.709 464.088 723.291 460.506 723.291 456.088V424.899C723.291 423.794 724.186 422.899 725.291 422.899H739.194C743.612 422.899 747.194 419.317 747.194 414.899V398.263Z" fill="#F9EBC4"/>
<path fill-rule="evenodd" clip-rule="evenodd" d="M461.393 272.854C462.835 272.033 464.277 271.213 465.718 270.391C462.531 266.973 461.76 264.487 464.504 263.444L464.169 263.173L465.478 263.165C465.902 263.076 466.379 263.009 466.912 262.964C482.468 261.67 496.491 263.624 500.782 264.466C501.277 264.563 501.733 264.744 502.169 264.997C518.888 274.728 552.701 294.534 559.246 298.846C561.982 300.648 564.579 302.944 566.831 305.236C574.267 312.252 578.765 320.793 579.592 331.233L579.64 337.804C579.618 338.261 579.597 338.743 579.6 339.2C579.584 343.257 579.57 347.314 579.555 351.371C579.496 367.61 579.438 383.849 579.315 400.088C579.284 405.942 577.842 411.427 574.415 416.227L574.832 416.267C572.755 419.354 566.943 426.621 560.312 430.989C553.682 435.357 519.068 455.625 502.591 465.212C496.391 467.832 484.659 468.712 468.038 467.327C467.943 467.319 467.909 467.265 467.935 467.167L464.018 466.286L464.018 463.05L466.99 460.231C461.825 457.204 456.626 454.24 451.429 451.276C439.776 444.631 428.128 437.989 416.878 430.655C408.004 424.876 401.091 417.599 397.773 407.199C396.47 403.051 396.361 398.807 396.251 394.534L396.251 394.531C396.234 393.867 396.217 393.202 396.196 392.536C395.605 374.592 395.754 356.665 395.903 338.741C395.932 335.328 395.96 331.915 395.984 328.502C396.063 318.735 400.947 311.045 408.14 305.231C414.907 299.744 422.458 295.404 430 291.069L430.001 291.069C432.3 289.748 434.599 288.427 436.873 287.074C437.171 286.896 437.476 286.719 437.78 286.541L437.782 286.54C438.085 286.362 438.389 286.185 438.687 286.007L439.679 285.394L439.705 285.378L440.823 284.687C447.644 280.682 454.516 276.769 461.387 272.858L461.391 272.855L461.393 272.854ZM447.652 328.119L447.751 328.062L447.752 328.062L447.753 328.061C449.988 326.776 452.479 325.345 454.981 323.857L459.109 321.366C465.576 317.572 472.127 313.842 478.912 309.98L478.951 309.958L478.953 309.956L478.967 309.949C481.695 308.395 484.462 306.82 487.24 305.231C487.891 305.478 489.142 306.047 491.294 307.336L491.305 307.343C495.717 309.991 500.234 311.206 504.751 312.422C509.266 313.636 513.78 314.851 518.189 317.495L518.362 317.599C526.667 322.579 534.967 327.556 543.261 332.532C543.431 332.759 543.499 332.89 543.515 332.922C543.545 332.979 543.567 333.032 543.591 333.118L543.597 333.141C543.6 333.152 543.603 333.164 543.607 333.178L543.634 336.944C543.615 337.496 543.598 338.197 543.599 338.947C543.584 342.959 543.569 346.969 543.555 350.975L543.555 350.988L543.555 351.002C543.499 366.514 543.443 381.951 543.332 397.375C543.073 397.684 542.825 397.967 542.586 398.229L542.557 398.261L542.528 398.292C540.89 400.096 538.144 402.174 531.25 406.094L531.233 406.105L531.215 406.115C524.172 410.13 516.949 412.805 509.714 415.483C502.238 418.251 494.75 421.024 487.433 425.286C481.052 421.505 474.666 417.863 468.582 414.394L468.578 414.392L468.443 414.315C456.635 407.582 445.931 401.465 435.736 394.819L435.722 394.81C433.47 393.343 432.434 392.309 431.997 391.793C431.882 391.657 431.792 391.54 431.719 391.429C431.709 391.249 431.697 391.033 431.686 390.776C431.656 390.083 431.636 389.335 431.607 388.213L431.606 388.165L431.606 388.161C431.59 387.526 431.57 386.758 431.545 385.97L431.544 385.953C431.127 373.29 431.216 366.814 431.351 356.953L431.351 356.95L431.369 355.643C431.411 352.541 431.455 349.085 431.489 345.004L431.489 344.982L431.489 344.981L431.489 344.979C431.508 342.738 431.527 340.483 431.544 338.223C435.519 335.165 440.353 332.314 447.652 328.119Z" fill="#F9EBC4"/>
<path fill-rule="evenodd" clip-rule="evenodd" d="M425.435 293.367L429.973 300.675L429.948 300.691L439.472 316.026L438.238 316.788L437.993 316.933C437.553 317.195 437.127 317.443 436.846 317.607L436.808 317.629C436.808 317.629 436.808 317.629 436.808 317.629C436.479 317.821 436.315 317.917 436.179 317.998L436.159 318.009L436.14 318.021C433.636 319.506 431.144 320.935 428.909 322.217L428.81 322.274C421.511 326.459 416.677 329.304 412.702 332.355C412.685 334.619 412.666 336.877 412.647 339.122C412.496 357.129 412.358 374.273 412.92 391.31L412.921 391.328C412.946 392.116 412.966 392.884 412.982 393.518L412.983 393.566C413.012 394.685 413.032 395.432 413.062 396.123C413.073 396.379 413.084 396.594 413.095 396.775C413.168 396.885 413.258 397.002 413.373 397.138C413.81 397.653 414.846 398.684 417.098 400.148L417.111 400.157C427.306 406.788 438.011 412.891 449.819 419.609L449.954 419.686C456.039 423.148 462.426 426.782 468.809 430.556C483.205 422.187 497.636 413.954 511.958 405.807L511.976 405.797L511.993 405.787C518.887 401.875 521.633 399.801 523.271 398.002L523.3 397.97L523.329 397.939C523.568 397.677 523.816 397.395 524.075 397.086C524.186 381.697 524.242 366.295 524.299 350.817C524.313 346.811 524.328 342.8 524.343 338.789C524.342 338.04 524.359 337.341 524.378 336.791L524.351 333.033C524.345 333.008 524.339 332.988 524.335 332.972C524.311 332.887 524.289 332.834 524.26 332.777C524.243 332.746 524.175 332.614 524.006 332.388C515.712 327.423 507.412 322.457 499.107 317.489L499.058 317.459C490.195 312.157 481.327 306.851 472.464 301.544C472.462 301.543 472.461 301.542 472.459 301.541C472.457 301.54 472.455 301.539 472.453 301.538C470.3 300.251 469.049 299.684 468.399 299.437C465.615 301.026 462.843 302.6 460.109 304.153L460.071 304.175C453.286 308.029 446.734 311.751 440.267 315.536L439.498 316.01L425.427 293.353L425.435 293.367ZM421.568 284.65C428.389 280.654 435.261 276.75 442.133 272.847L442.137 272.845C446.025 270.636 449.913 268.428 453.792 266.202C455.233 265.392 456.725 264.783 458.319 264.403L460.34 263.951C460.721 263.838 461.571 263.608 462.793 263.403L463.774 263.184L464.395 263.184C467.692 262.828 472.608 262.868 478.131 264.821L478.205 264.847C482.608 266.176 486.749 268.264 490.796 270.686C499.656 275.991 508.523 281.295 517.389 286.6L517.467 286.647C526.327 291.948 535.186 297.248 544.04 302.549C545.067 303.156 546.069 303.763 546.948 304.572C554.758 311.68 559.486 320.385 560.337 331.092L560.384 337.649C560.362 338.104 560.341 338.585 560.344 339.041C560.328 343.089 560.314 347.137 560.299 351.185C560.24 367.388 560.181 383.59 560.058 399.793C560.026 405.716 558.544 411.261 555.012 416.098C553.431 418.276 551.774 420.352 549.967 422.328C544.25 428.609 537.196 432.993 529.916 437.123C515.084 445.561 500.251 454.025 485.494 462.615C481.171 465.124 476.615 466.417 471.728 466.8L467.088 466.803C461.571 466.376 456.347 464.885 451.511 462.028C445.108 458.228 438.639 454.547 432.171 450.867C420.519 444.238 408.871 437.61 397.62 430.292C388.747 424.526 381.834 417.265 378.516 406.889C377.213 402.75 377.104 398.516 376.995 394.252L376.995 394.249C376.978 393.586 376.961 392.923 376.939 392.259C376.349 374.354 376.498 356.467 376.648 338.583C376.676 335.178 376.704 331.773 376.728 328.368C376.807 318.622 381.692 310.949 388.885 305.148C395.651 299.673 403.203 295.343 410.745 291.018C413.045 289.7 415.343 288.382 417.618 287.032C417.916 286.854 418.221 286.677 418.525 286.5L418.527 286.499C418.83 286.322 419.134 286.145 419.432 285.968L420.424 285.356L420.525 285.296L420.45 285.34L421.568 284.65Z" fill="#F1CD6D"/>
<path d="M698.583 388.263C698.583 389.368 699.478 390.263 700.583 390.263H714.482C718.9 390.263 722.482 393.845 722.482 398.263V414.896C722.482 419.315 718.9 422.896 714.482 422.896H700.583C699.478 422.896 698.583 423.792 698.583 424.896V456.086C698.583 460.504 695.001 464.086 690.583 464.086H665.571C661.153 464.086 657.571 460.504 657.571 456.086V424.899C657.571 423.794 656.676 422.899 655.571 422.899H580.832C576.414 422.899 572.832 419.317 572.832 414.899V396.121C572.832 394.519 573.313 392.955 574.211 391.63L657.5 268.841C658.989 266.646 661.468 265.332 664.121 265.332H690.583C695.001 265.332 698.583 268.914 698.583 273.332V388.263ZM658.253 332.08C658.654 322.513 658.986 316.536 659.251 314.149C659.291 313.783 659.007 313.456 658.639 313.456C658.404 313.456 658.191 313.593 658.093 313.807C654.697 321.247 650.71 328.403 646.169 335.205L611.826 387.16C610.947 388.49 611.901 390.263 613.494 390.263H655.573C656.678 390.263 657.573 389.368 657.573 388.263V356.55C657.573 350.94 657.8 342.783 658.255 332.081" fill="#F1CD6D"/>
<path d="M112.072 232.428C112.072 232.428 119.515 228.483 117.853 208.22L133.229 205.369C133.229 205.369 131.502 223.537 139.28 229.304L112.072 232.428Z" fill="#E98862"/>
<g opacity="0.15">
<path d="M136.132 225.507L123.357 215.737L133.39 215.633C133.68 219.066 134.61 222.415 136.132 225.507Z" fill="black"/>
</g>
<path d="M109.127 200.363C110.191 206.511 113.546 212.333 118.97 214.317C125.408 216.674 130.177 216.834 137.6 216.834C147.73 216.834 147.395 206.271 147.679 195.626C147.968 184.939 147.115 173.475 143.111 169.751C135.123 162.318 111.666 167.025 108.813 179.458C107.338 185.89 108.113 194.507 109.127 200.363Z" fill="#E98862"/>
<path d="M154.704 165.326C154.704 160.243 148.377 151.914 131.497 163.402L131.481 163.413C127.096 163.29 122.715 163.769 118.46 164.836C110.741 167.146 101.062 173.616 103.542 189.303C106.314 206.812 113.487 211.485 117.102 213.633C118.023 214.18 118.246 213.729 118.566 212.712C119.569 208.932 120.286 205.082 120.711 201.194C121.343 197.411 121.629 193.578 121.567 189.743C121.567 188.043 121.576 181.852 130.009 181.781C134.753 181.742 132.979 181.931 138.042 181.931C138.764 181.931 139.401 181.898 139.988 181.846H139.995C157.475 181.845 154.704 170.41 154.704 165.326Z" fill="#0F1011"/>
<path d="M133.211 195.629C133.981 195.629 134.606 195.004 134.606 194.234C134.606 193.464 133.981 192.84 133.211 192.84C132.441 192.84 131.816 193.464 131.816 194.234C131.816 195.004 132.441 195.629 133.211 195.629Z" fill="#0F1011"/>
<path d="M144.211 194.726C144.981 194.726 145.606 194.102 145.606 193.332C145.606 192.562 144.981 191.938 144.211 191.938C143.441 191.938 142.816 192.562 142.816 193.332C142.816 194.102 143.441 194.726 144.211 194.726Z" fill="#0F1011"/>
<path d="M146.627 190.36H146.618L142.923 190.314C142.754 190.306 142.594 190.233 142.477 190.11C142.36 189.987 142.296 189.824 142.297 189.655C142.298 189.485 142.365 189.323 142.483 189.201C142.602 189.08 142.762 189.009 142.932 189.004H142.941L146.635 189.05C146.805 189.058 146.965 189.13 147.081 189.253C147.198 189.376 147.263 189.54 147.262 189.709C147.261 189.879 147.194 190.041 147.075 190.162C146.957 190.284 146.796 190.355 146.627 190.36Z" fill="#0F1011"/>
<path d="M130.199 191.707C130.038 191.708 129.882 191.649 129.762 191.543C129.641 191.436 129.564 191.288 129.545 191.129C129.527 190.969 129.567 190.808 129.66 190.676C129.752 190.544 129.89 190.451 130.047 190.414L133.69 189.537C133.774 189.515 133.862 189.51 133.948 189.522C134.035 189.534 134.118 189.564 134.193 189.608C134.268 189.653 134.333 189.712 134.385 189.783C134.437 189.853 134.474 189.933 134.494 190.018C134.515 190.103 134.518 190.191 134.504 190.277C134.49 190.363 134.458 190.446 134.412 190.52C134.366 190.594 134.305 190.657 134.233 190.708C134.162 190.758 134.081 190.793 133.996 190.811L130.353 191.688C130.302 191.701 130.251 191.707 130.199 191.707Z" fill="#0F1011"/>
<path d="M125.955 197.646C126.03 198.426 125.949 199.213 125.717 199.961C125.485 200.709 125.106 201.404 124.604 202.004C124.101 202.605 123.484 203.1 122.788 203.46C122.092 203.82 121.332 204.039 120.551 204.102C119.77 204.166 118.984 204.074 118.239 203.832C117.494 203.589 116.805 203.201 116.211 202.69C115.618 202.179 115.132 201.554 114.781 200.854C114.431 200.153 114.224 199.39 114.171 198.608C114.094 197.832 114.174 197.048 114.407 196.304C114.639 195.559 115.019 194.869 115.523 194.274C116.028 193.68 116.647 193.192 117.344 192.842C118.041 192.491 118.801 192.285 119.58 192.234C123.793 192.102 125.688 194.392 125.955 197.646Z" fill="#E98862"/>
<g opacity="0.15">
<path d="M139.397 201.967C139.281 201.967 139.17 201.926 139.083 201.851C138.996 201.775 138.938 201.671 138.921 201.557C138.904 201.443 138.929 201.327 138.99 201.23C139.052 201.132 139.146 201.06 139.256 201.026L142.091 200.155L140.108 195.737C140.057 195.621 140.055 195.49 140.1 195.372C140.146 195.254 140.236 195.159 140.352 195.107C140.467 195.055 140.599 195.051 140.717 195.095C140.836 195.139 140.932 195.228 140.986 195.343L143.193 200.257C143.221 200.32 143.236 200.387 143.236 200.456C143.236 200.524 143.221 200.591 143.193 200.654C143.165 200.716 143.124 200.771 143.073 200.816C143.021 200.861 142.961 200.895 142.896 200.915L139.539 201.946C139.493 201.96 139.445 201.968 139.397 201.967Z" fill="black"/>
</g>
<path d="M214.904 617.936L194.834 615.551C195.737 607.955 196.759 598.831 196.828 597.336C196.828 597.432 196.828 597.51 196.828 597.571H217.039C217.034 598.177 217.034 600.025 214.904 617.936Z" fill="#E98862"/>
<path d="M124.744 620.353L104.533 620.287C104.533 620.287 104.601 599.42 104.601 597.576H124.812C124.812 599.426 124.744 620.353 124.744 620.353Z" fill="#E98862"/>
<path d="M187.227 615.344L221.883 607.164C199.444 519.086 180.615 429.183 162.378 340.153L162.121 340.229L161.368 335.1L88.1496 330.578C88.1496 330.578 85.2989 366.431 85.3008 378.405C85.3075 437.111 94.6451 534.713 99.284 612.813L134.848 610.991C132.756 535.258 127.103 459.414 127.509 383.66C148.805 460.302 170.043 537.763 187.227 615.344Z" fill="#262626"/>
<path d="M149.315 628.169C149.858 628.167 150.396 628.052 150.893 627.833C151.39 627.613 151.837 627.294 152.205 626.894C152.573 626.494 152.855 626.023 153.032 625.509C153.21 624.996 153.28 624.451 153.238 623.909C153.179 623.158 152.907 622.439 152.454 621.837C152.001 621.236 151.385 620.776 150.679 620.513L127.155 612.632C126.699 612.481 126.216 612.43 125.739 612.483C125.262 612.536 124.802 612.692 124.391 612.939C121.157 615.182 117.288 616.329 113.353 616.211C110.289 615.993 107.347 614.919 104.864 613.11C104.645 612.931 104.381 612.818 104.101 612.784C103.821 612.75 103.537 612.796 103.282 612.917C103.027 613.038 102.812 613.229 102.661 613.468C102.511 613.706 102.431 613.983 102.432 614.265V625.766C102.432 626.106 102.499 626.442 102.629 626.755C102.759 627.068 102.95 627.353 103.19 627.592C103.431 627.832 103.716 628.021 104.03 628.15C104.344 628.279 104.68 628.345 105.02 628.343L149.315 628.169Z" fill="#E0E0E0"/>
<path d="M239.526 628.169C240.069 628.167 240.607 628.052 241.104 627.833C241.601 627.613 242.048 627.294 242.416 626.894C242.784 626.494 243.066 626.023 243.244 625.509C243.422 624.996 243.492 624.451 243.45 623.909C243.391 623.158 243.119 622.439 242.665 621.838C242.212 621.236 241.596 620.776 240.89 620.513L217.366 612.632C216.91 612.481 216.427 612.43 215.95 612.483C215.473 612.536 215.013 612.692 214.602 612.939C211.368 615.183 207.499 616.33 203.564 616.21C200.5 615.993 197.559 614.919 195.076 613.11C194.857 612.931 194.593 612.818 194.312 612.783C194.032 612.749 193.748 612.795 193.493 612.916C193.238 613.037 193.023 613.228 192.872 613.467C192.721 613.706 192.642 613.982 192.643 614.265V625.766C192.643 626.106 192.71 626.442 192.84 626.755C192.97 627.068 193.161 627.353 193.401 627.592C193.642 627.832 193.927 628.021 194.241 628.15C194.555 628.279 194.891 628.345 195.231 628.343L239.526 628.169Z" fill="#E0E0E0"/>
<path d="M213.691 241.929C213.691 241.929 215.231 230.478 223.36 232.067C228.489 233.073 253.215 234.92 253.308 237.205C253.54 242.859 230.883 241.476 228.216 246.39L213.691 241.929Z" fill="#E98862"/>
<path d="M220.412 232.083C220.412 232.083 232.281 229.751 235.006 230.758C237.417 231.651 231.749 235.064 231.749 235.064L220.412 232.083Z" fill="#E98862"/>
<path d="M39.6205 241.929C39.6205 241.929 38.0806 230.478 29.9518 232.067C24.823 233.073 0.0980121 234.924 0.00176848 237.205C-0.230179 242.859 22.4265 241.476 25.0934 246.39L39.6205 241.929Z" fill="#E98862"/>
<path d="M32.9019 232.083C32.9019 232.083 21.0331 229.751 18.3085 230.758C15.8966 231.651 21.5653 235.064 21.5653 235.064L32.9019 232.083Z" fill="#E98862"/>
<path d="M143.357 208.513C143.357 208.513 138.272 207.551 134.572 208.513C134.572 208.513 134.878 205.137 138.965 205.137C143.051 205.137 143.357 208.513 143.357 208.513Z" fill="#F9EBC4"/>
<path d="M213.652 235.193L185.684 277.236L163.74 236.069L163.523 236.184C160.54 230.988 155.15 227.639 145.882 227.239C145.276 227.21 144.304 227.191 143.052 227.172C142.802 232.465 110.022 232.445 109.329 227.047C100.07 227.056 92.4764 229.895 88.0781 234.293C86.3019 236.047 84.8793 238.126 83.8876 240.417L61.9441 278.194L37.8976 234.129L19.4766 244.181L52.4554 304.597C53.3467 306.23 54.6565 307.597 56.2506 308.558C57.8446 309.518 59.6655 310.037 61.5264 310.061H61.6659C63.5033 310.061 65.3084 309.579 66.9006 308.662C68.4929 307.746 69.8164 306.427 70.7388 304.838L87.7316 275.584C89.744 282.435 91.5284 289.23 91.5284 295.487C91.5284 315.705 82.3853 324.761 83.059 335.134C84.1176 351.436 163.355 347.587 167.388 338.32C171.545 328.774 163.105 322.884 163.48 291.648C163.519 288.344 163.769 284.892 164.112 281.378L175.429 302.612C176.283 304.215 177.538 305.568 179.071 306.54C180.605 307.512 182.365 308.069 184.178 308.157C184.35 308.166 184.52 308.17 184.689 308.17C186.418 308.169 188.121 307.742 189.645 306.925C191.169 306.108 192.467 304.928 193.424 303.488L231.125 246.814L213.652 235.193Z" fill="#EBB932"/>
<path d="M143.056 227.172C142.806 232.465 139.928 240.25 131.045 240.837C119.207 241.616 110.025 232.445 109.332 227.047H109.361C121.016 227.047 136.261 227.066 143.056 227.172Z" fill="#E98862"/>
<path d="M26.0508 628.633L314.84 628.336" stroke="#E0E0E0"/>
</svg>
